<mxfile host="app.diagrams.net" agent="Mozilla/5.0 (Macintosh; Intel Mac OS X 10_15_7) AppleWebKit/537.36 (KHTML, like Gecko) Chrome/130.0.0.0 Safari/537.36" version="24.8.3">
  <diagram name="Page-1" id="74e2e168-ea6b-b213-b513-2b3c1d86103e">
    <mxGraphModel dx="1734" dy="826" grid="1" gridSize="10" guides="1" tooltips="1" connect="1" arrows="1" fold="1" page="1" pageScale="1" pageWidth="1100" pageHeight="850" background="none" math="0" shadow="0">
      <root>
        <mxCell id="0" />
        <mxCell id="1" parent="0" />
        <mxCell id="77e6c97f196da883-1" value="" style="swimlane;html=1;childLayout=stackLayout;startSize=20;rounded=0;shadow=0;labelBackgroundColor=none;strokeWidth=1;fontFamily=Verdana;fontSize=8;align=center;" parent="1" vertex="1">
          <mxGeometry x="120" y="70" width="770" height="410" as="geometry" />
        </mxCell>
        <mxCell id="77e6c97f196da883-2" value="Step 1" style="swimlane;html=1;startSize=20;" parent="77e6c97f196da883-1" vertex="1">
          <mxGeometry y="20" width="160" height="390" as="geometry">
            <mxRectangle y="20" width="40" height="730" as="alternateBounds" />
          </mxGeometry>
        </mxCell>
        <mxCell id="U_UTCDMzBQRe0RUkPxmt-4" value="Reading the input file" style="rounded=1;whiteSpace=wrap;html=1;" vertex="1" parent="77e6c97f196da883-2">
          <mxGeometry x="10" y="60" width="120" height="60" as="geometry" />
        </mxCell>
        <mxCell id="U_UTCDMzBQRe0RUkPxmt-6" value="" style="edgeStyle=none;orthogonalLoop=1;jettySize=auto;html=1;rounded=0;fontSize=12;startSize=8;endSize=8;curved=1;exitX=0.5;exitY=1;exitDx=0;exitDy=0;entryX=0;entryY=0;entryDx=0;entryDy=18;entryPerimeter=0;" edge="1" parent="77e6c97f196da883-2" source="U_UTCDMzBQRe0RUkPxmt-4" target="U_UTCDMzBQRe0RUkPxmt-10">
          <mxGeometry width="120" relative="1" as="geometry">
            <mxPoint x="450" y="350" as="sourcePoint" />
            <mxPoint x="70" y="150" as="targetPoint" />
            <Array as="points" />
          </mxGeometry>
        </mxCell>
        <mxCell id="U_UTCDMzBQRe0RUkPxmt-10" value="Open() Fucntion" style="shape=singleArrow;whiteSpace=wrap;html=1;arrowWidth=0.4;arrowSize=0.4;" vertex="1" parent="77e6c97f196da883-2">
          <mxGeometry x="30" y="150" width="80" height="60" as="geometry" />
        </mxCell>
        <mxCell id="77e6c97f196da883-4" value="Step 2" style="swimlane;html=1;startSize=20;" parent="77e6c97f196da883-1" vertex="1">
          <mxGeometry x="160" y="20" width="280" height="390" as="geometry" />
        </mxCell>
        <mxCell id="U_UTCDMzBQRe0RUkPxmt-11" value="Average Length" style="rounded=1;whiteSpace=wrap;html=1;" vertex="1" parent="77e6c97f196da883-4">
          <mxGeometry x="20" y="190" width="70" height="30" as="geometry" />
        </mxCell>
        <mxCell id="U_UTCDMzBQRe0RUkPxmt-12" value="Unscramble Lines" style="rounded=1;whiteSpace=wrap;html=1;" vertex="1" parent="77e6c97f196da883-4">
          <mxGeometry x="190" y="190" width="70" height="30" as="geometry" />
        </mxCell>
        <mxCell id="U_UTCDMzBQRe0RUkPxmt-3" value="Processing the File" style="rounded=1;whiteSpace=wrap;html=1;" vertex="1" parent="77e6c97f196da883-4">
          <mxGeometry x="80" y="50" width="120" height="60" as="geometry" />
        </mxCell>
        <mxCell id="U_UTCDMzBQRe0RUkPxmt-14" value="" style="edgeStyle=none;orthogonalLoop=1;jettySize=auto;html=1;rounded=0;fontSize=12;startSize=8;endSize=8;curved=1;exitX=0.25;exitY=1;exitDx=0;exitDy=0;entryX=0.5;entryY=0;entryDx=0;entryDy=0;" edge="1" parent="77e6c97f196da883-4" source="U_UTCDMzBQRe0RUkPxmt-3" target="U_UTCDMzBQRe0RUkPxmt-11">
          <mxGeometry width="120" relative="1" as="geometry">
            <mxPoint x="290" y="350" as="sourcePoint" />
            <mxPoint x="410" y="350" as="targetPoint" />
            <Array as="points" />
          </mxGeometry>
        </mxCell>
        <mxCell id="U_UTCDMzBQRe0RUkPxmt-15" value="" style="edgeStyle=none;orthogonalLoop=1;jettySize=auto;html=1;rounded=0;fontSize=12;startSize=8;endSize=8;curved=1;exitX=0.5;exitY=1;exitDx=0;exitDy=0;entryX=0.5;entryY=0;entryDx=0;entryDy=0;" edge="1" parent="77e6c97f196da883-4" source="U_UTCDMzBQRe0RUkPxmt-3" target="U_UTCDMzBQRe0RUkPxmt-13">
          <mxGeometry width="120" relative="1" as="geometry">
            <mxPoint x="60" y="130" as="sourcePoint" />
            <mxPoint x="45" y="190" as="targetPoint" />
            <Array as="points" />
          </mxGeometry>
        </mxCell>
        <mxCell id="U_UTCDMzBQRe0RUkPxmt-18" value="" style="edgeStyle=none;orthogonalLoop=1;jettySize=auto;html=1;rounded=0;fontSize=12;startSize=8;endSize=8;curved=1;exitX=0.75;exitY=1;exitDx=0;exitDy=0;entryX=0.5;entryY=0;entryDx=0;entryDy=0;" edge="1" parent="77e6c97f196da883-4" source="U_UTCDMzBQRe0RUkPxmt-3" target="U_UTCDMzBQRe0RUkPxmt-12">
          <mxGeometry width="120" relative="1" as="geometry">
            <mxPoint x="450" y="200" as="sourcePoint" />
            <mxPoint x="405" y="370" as="targetPoint" />
            <Array as="points" />
          </mxGeometry>
        </mxCell>
        <mxCell id="U_UTCDMzBQRe0RUkPxmt-13" value="Longest Line" style="rounded=1;whiteSpace=wrap;html=1;" vertex="1" parent="77e6c97f196da883-4">
          <mxGeometry x="105" y="150" width="70" height="30" as="geometry" />
        </mxCell>
        <mxCell id="U_UTCDMzBQRe0RUkPxmt-19" value="Var =&amp;nbsp;&lt;div&gt;average_length&lt;div&gt;sorted_lines&lt;/div&gt;&lt;/div&gt;&lt;div&gt;longest_line&lt;/div&gt;" style="ellipse;shape=cloud;whiteSpace=wrap;html=1;" vertex="1" parent="77e6c97f196da883-4">
          <mxGeometry x="-10" y="220" width="290" height="160" as="geometry" />
        </mxCell>
        <mxCell id="77e6c97f196da883-5" value="Step 3" style="swimlane;html=1;startSize=20;" parent="77e6c97f196da883-1" vertex="1">
          <mxGeometry x="440" y="20" width="160" height="390" as="geometry" />
        </mxCell>
        <mxCell id="U_UTCDMzBQRe0RUkPxmt-20" value="Writing the output" style="rounded=1;whiteSpace=wrap;html=1;" vertex="1" parent="77e6c97f196da883-5">
          <mxGeometry x="20" y="50" width="120" height="60" as="geometry" />
        </mxCell>
        <mxCell id="U_UTCDMzBQRe0RUkPxmt-21" value="Create New file" style="rounded=1;whiteSpace=wrap;html=1;" vertex="1" parent="77e6c97f196da883-5">
          <mxGeometry x="35" y="130" width="90" height="40" as="geometry" />
        </mxCell>
        <mxCell id="U_UTCDMzBQRe0RUkPxmt-41" value="Includes all variables" style="rounded=1;whiteSpace=wrap;html=1;" vertex="1" parent="77e6c97f196da883-5">
          <mxGeometry x="35" y="190" width="90" height="40" as="geometry" />
        </mxCell>
        <mxCell id="77e6c97f196da883-6" value="Step 4" style="swimlane;html=1;startSize=20;" parent="77e6c97f196da883-1" vertex="1">
          <mxGeometry x="600" y="20" width="170" height="390" as="geometry" />
        </mxCell>
        <mxCell id="U_UTCDMzBQRe0RUkPxmt-42" value="Main Function and file handling" style="rounded=1;whiteSpace=wrap;html=1;" vertex="1" parent="77e6c97f196da883-6">
          <mxGeometry x="20" y="50" width="120" height="60" as="geometry" />
        </mxCell>
        <mxCell id="U_UTCDMzBQRe0RUkPxmt-43" value="Final Function that will allow the file to be read, processed and write a new file" style="shape=hexagon;perimeter=hexagonPerimeter2;whiteSpace=wrap;html=1;fixedSize=1;" vertex="1" parent="77e6c97f196da883-6">
          <mxGeometry x="10" y="210" width="150" height="85" as="geometry" />
        </mxCell>
        <mxCell id="U_UTCDMzBQRe0RUkPxmt-7" value="" style="edgeStyle=none;orthogonalLoop=1;jettySize=auto;html=1;rounded=0;fontSize=12;startSize=8;endSize=8;curved=1;exitX=1;exitY=0.5;exitDx=0;exitDy=0;entryX=0;entryY=0.5;entryDx=0;entryDy=0;exitPerimeter=0;" edge="1" parent="77e6c97f196da883-1" source="U_UTCDMzBQRe0RUkPxmt-10" target="U_UTCDMzBQRe0RUkPxmt-3">
          <mxGeometry width="120" relative="1" as="geometry">
            <mxPoint x="130" y="200" as="sourcePoint" />
            <mxPoint x="570" y="370" as="targetPoint" />
            <Array as="points" />
          </mxGeometry>
        </mxCell>
        <mxCell id="U_UTCDMzBQRe0RUkPxmt-44" value="" style="edgeStyle=none;curved=1;rounded=0;orthogonalLoop=1;jettySize=auto;html=1;fontSize=12;startSize=8;endSize=8;entryX=0;entryY=0.5;entryDx=0;entryDy=0;exitX=0.875;exitY=0.5;exitDx=0;exitDy=0;exitPerimeter=0;" edge="1" parent="77e6c97f196da883-1" source="U_UTCDMzBQRe0RUkPxmt-19" target="U_UTCDMzBQRe0RUkPxmt-20">
          <mxGeometry relative="1" as="geometry">
            <mxPoint x="460" y="320" as="sourcePoint" />
          </mxGeometry>
        </mxCell>
        <mxCell id="U_UTCDMzBQRe0RUkPxmt-47" style="edgeStyle=none;curved=1;rounded=0;orthogonalLoop=1;jettySize=auto;html=1;entryX=0;entryY=0.5;entryDx=0;entryDy=0;fontSize=12;startSize=8;endSize=8;exitX=1;exitY=0.5;exitDx=0;exitDy=0;" edge="1" parent="77e6c97f196da883-1" source="U_UTCDMzBQRe0RUkPxmt-21" target="U_UTCDMzBQRe0RUkPxmt-42">
          <mxGeometry relative="1" as="geometry" />
        </mxCell>
      </root>
    </mxGraphModel>
  </diagram>
</mxfile>
